HIERARCHY
ROOT root
{
	OFFSET 0.000000 0.000000 0.000000
	CHANNELS 6 Xposition Yposition Zposition Zrotation Yrotation Xrotation
	JOINT lhip
	{
		OFFSET 0.058581 -0.082280 -0.017664
		CHANNELS 3 Zrotation Yrotation Xrotation
		JOINT lknee
		{
			OFFSET 0.043451 -0.386469 0.008037
			CHANNELS 3 Zrotation Yrotation Xrotation
			JOINT lankle
			{
				OFFSET -0.014790 -0.426874 -0.037428
				CHANNELS 3 Zrotation Yrotation Xrotation
				JOINT ltoe
				{
					OFFSET 0.041054 -0.060286 0.122042
					CHANNELS 3 Zrotation Yrotation Xrotation
					End Site
					{
						OFFSET 0.000000 0.000000 0.000000
					}
				}
			}
		}
	}
	JOINT rhip
	{
		OFFSET -0.060310 -0.090513 -0.013543
		CHANNELS 3 Zrotation Yrotation Xrotation
		JOINT rknee
		{
			OFFSET -0.043257 -0.383688 -0.004843
			CHANNELS 3 Zrotation Yrotation Xrotation
			JOINT rankle
			{
				OFFSET 0.019056 -0.420046 -0.034562
				CHANNELS 3 Zrotation Yrotation Xrotation
				JOINT rtoe
				{
					OFFSET -0.034840 -0.062106 0.130323
					CHANNELS 3 Zrotation Yrotation Xrotation
					End Site
					{
						OFFSET 0.000000 0.000000 0.000000
					}
				}
			}
		}
	}
	JOINT lowerback
	{
		OFFSET 0.004439 0.124404 -0.038385
		CHANNELS 3 Zrotation Yrotation Xrotation
		JOINT upperback
		{
			OFFSET 0.004488 0.137956 0.026820
			CHANNELS 3 Zrotation Yrotation Xrotation
			JOINT chest
			{
				OFFSET -0.002265 0.056032 0.002855
				CHANNELS 3 Zrotation Yrotation Xrotation
				JOINT lowerneck
				{
					OFFSET -0.013390 0.211636 -0.033468
					CHANNELS 3 Zrotation Yrotation Xrotation
					JOINT upperneck
					{
						OFFSET 0.010113 0.088937 0.050410
						CHANNELS 3 Zrotation Yrotation Xrotation
						End Site
						{
							OFFSET 0.000000 0.000000 0.000000
						}
					}
				}
				JOINT lclavicle
				{
					OFFSET 0.071702 0.114000 -0.018898
					CHANNELS 3 Zrotation Yrotation Xrotation
					JOINT lshoulder
					{
						OFFSET 0.122921 0.045205 -0.019046
						CHANNELS 3 Zrotation Yrotation Xrotation
						JOINT lelbow
						{
							OFFSET 0.255332 -0.015649 -0.022946
							CHANNELS 3 Zrotation Yrotation Xrotation
							JOINT lwrist
							{
								OFFSET 0.265709 0.012698 -0.007375
								CHANNELS 3 Zrotation Yrotation Xrotation
								End Site
								{
									OFFSET 0.000000 0.000000 0.000000
								}
							}
						}
					}
				}
				JOINT rclavicle
				{
					OFFSET -0.082954 0.112472 -0.023707
					CHANNELS 3 Zrotation Yrotation Xrotation
					JOINT rshoulder
					{
						OFFSET -0.113228 0.046853 -0.008472
						CHANNELS 3 Zrotation Yrotation Xrotation
						JOINT relbow
						{
							OFFSET -0.260127 -0.014369 -0.031269
							CHANNELS 3 Zrotation Yrotation Xrotation
							JOINT rwrist
							{
								OFFSET -0.269108 0.006794 -0.006027
								CHANNELS 3 Zrotation Yrotation Xrotation
								End Site
								{
									OFFSET 0.000000 0.000000 0.000000
								}
							}
						}
					}
				}
			}
		}
	}
}
MOTION
Frames: 17
Frame Time: 0.033333
-0.599398 0.189474 1.170638 -177.619258 1.740123 83.068891 -0.811332 -1.413933 3.563601 -3.951481 -11.508232 17.368976 3.419849 8.426929 -16.981934 0.000000 -0.000000 0.000000 3.550188 -4.337714 3.646164 1.788465 -2.018611 16.075576 0.712055 -7.217439 -16.006780 0.000000 -0.000000 0.000000 1.887594 0.914401 11.301044 0.732271 -0.859863 -2.395459 -0.044691 -0.741956 1.506324 0.058160 4.493353 -2.368280 -2.455353 0.326780 11.672364 -27.791245 1.388149 1.953477 -56.323601 -6.137573 9.529940 7.780232 -26.164663 8.726030 -3.702369 -4.064386 -4.486553 27.624012 2.521438 3.197690 57.491038 2.329607 13.465356 -10.547509 20.416871 -3.317882 5.663333 3.781275 -7.246435 
-0.595483 0.191348 1.168495 -177.303478 1.935905 82.454943 -0.826296 -1.910720 0.405106 -4.505668 -9.897072 24.888282 3.000695 8.424318 -16.905594 0.000000 -0.000000 0.000000 3.934176 -4.258080 4.530686 2.092954 -1.680842 16.148736 0.375428 -7.471887 -16.545502 0.000000 -0.000000 0.000000 2.032224 1.392048 12.091194 0.985647 -1.024931 -2.280647 0.029278 -0.815954 1.855792 -0.121678 4.338007 -2.687568 -2.440457 0.203300 12.158377 -28.020875 0.925803 2.029277 -55.763315 -6.676769 9.191222 8.292548 -26.981559 7.862203 -3.571013 -4.058702 -5.125920 27.507731 2.652131 3.059440 57.377053 2.159272 13.630613 -10.954656 20.826716 -2.974480 5.436702 3.859185 -7.184868 
-0.591554 0.193354 1.166750 -177.074929 2.222768 81.636003 -0.232237 -2.343897 -4.162388 -5.713359 -7.675772 34.564064 1.265871 7.185322 -13.594978 0.000000 -0.000000 0.000000 4.401095 -4.806607 5.541280 2.035894 -1.784430 16.181419 -0.276783 -7.404262 -16.437807 0.000000 -0.000000 0.000000 2.127404 1.926299 13.388417 1.317499 -1.302944 -2.189842 0.281841 -0.867455 2.033136 -0.439894 3.880477 -2.746571 -2.100379 0.350961 12.154693 -28.325917 0.539166 1.912393 -55.543044 -7.224381 8.866094 8.874944 -27.437563 6.456239 -3.070722 -3.962306 -5.814035 27.482463 2.894189 2.854078 56.853523 2.494517 13.564186 -10.918887 20.697815 -3.177524 5.484655 3.848152 -7.319064 
-0.586915 0.196885 1.166110 -177.383116 2.310516 80.599988 0.856555 -3.774354 -10.308218 -7.621857 -4.663839 45.977860 -1.240366 5.413107 -5.473122 0.000000 -0.000000 0.000000 4.624453 -5.090893 7.062251 2.118537 -1.543355 15.769111 -1.726682 -6.986116 -16.641243 0.000000 -0.000000 0.000000 2.125397 2.856214 14.793365 1.738049 -1.729374 -1.746482 0.484060 -0.661855 2.061028 -1.001457 3.325832 -2.456208 -1.493454 0.249572 11.866906 -28.414829 0.323836 1.915289 -55.574288 -7.460095 8.831565 9.532967 -28.522242 5.368409 -2.426150 -3.835025 -6.953470 27.501583 3.443898 3.300894 56.284454 3.045086 13.307293 -10.836081 20.817518 -2.875899 4.932315 3.881994 -7.510517 
-0.584103 0.200563 1.165724 -177.924473 2.151805 79.759770 1.332726 -4.493802 -12.989620 -8.673640 -3.286394 50.560626 -1.776501 5.559584 -3.221158 0.000000 -0.000000 0.000000 4.308872 -5.684017 8.275769 2.273653 -1.062692 15.611833 -2.134010 -6.542391 -16.666515 0.000000 -0.000000 0.000000 2.086314 3.621305 15.685641 1.724827 -1.722878 -1.501794 0.507402 -0.506415 2.137572 -1.000871 2.942439 -2.174811 -1.078507 0.220778 12.018079 -28.299628 0.136209 2.093250 -55.431109 -7.483223 8.765229 9.810608 -29.299710 5.005229 -2.559749 -3.872177 -7.395488 27.586007 3.804796 3.515037 56.180638 3.310868 13.054668 -10.927388 20.454990 -3.080209 4.927824 3.749382 -7.576461 
-0.581280 0.206837 1.165435 -179.253192 1.847191 78.946396 1.986211 -4.579871 -15.986983 -9.475518 -1.379917 53.924374 -0.631002 5.509278 -6.207151 0.000000 -0.000000 0.000000 3.994083 -5.956339 9.637381 2.155886 0.142139 15.361650 -2.160481 -6.125158 -17.297330 0.000000 -0.000000 0.000000 1.936392 4.515076 16.467784 1.700950 -1.507276 -1.446997 0.533166 -0.071465 2.574503 -0.813977 2.944604 -1.803126 -1.038823 0.174876 12.427805 -28.515264 0.275887 2.046752 -54.968707 -7.134590 8.499085 9.447752 -30.349487 5.277678 -2.362514 -4.062198 -8.026591 27.634107 4.307003 3.983780 55.714975 3.636085 13.096050 -10.570337 20.440849 -2.383168 4.755928 3.331932 -7.003561 
-0.578976 0.215090 1.166111 179.225478 1.326612 78.291467 2.482803 -4.070659 -18.048099 -9.202385 0.680946 54.094545 -0.277052 5.742423 -6.370631 0.000000 -0.000000 0.000000 3.307695 -6.244780 11.021921 2.130120 1.091985 15.033861 -2.106335 -5.413387 -17.330282 0.000000 -0.000000 0.000000 1.886571 5.335869 16.860889 1.472502 -1.216707 -1.308749 0.282317 0.441719 2.747813 -0.849058 2.751696 -0.674926 -0.884039 0.188677 12.745993 -28.565923 0.605766 2.246046 -54.710512 -6.770690 8.279049 9.267146 -30.568163 5.618864 -2.769583 -3.921451 -7.764670 27.691414 4.432591 4.220585 55.797599 4.005604 12.840217 -10.509047 19.754492 -2.189234 5.173314 3.295998 -6.532290 
-0.577097 0.224226 1.166642 178.019350 0.838311 78.042716 2.879512 -3.625019 -19.666799 -8.684038 1.971588 52.001896 -0.169892 5.969582 -6.244263 0.000000 -0.000000 0.000000 2.565374 -6.536665 12.076122 2.130253 2.078016 14.591172 -2.265019 -4.743570 -17.970038 0.000000 -0.000000 0.000000 1.930632 6.093863 16.875270 1.167767 -1.052440 -1.365154 0.000601 0.672669 2.984400 -0.820122 2.834263 0.212935 -0.788037 0.109373 13.153016 -28.734423 1.191383 2.280254 -54.629414 -6.352228 8.112652 9.128918 -29.933540 5.967696 -2.505842 -3.863105 -7.139610 27.619317 4.040565 4.241866 56.064718 4.249724 12.796224 -10.234399 19.672681 -2.143710 5.043320 3.518568 -6.574875 
-0.577031 0.234476 1.166188 177.150415 0.413916 77.879267 2.877282 -3.596462 -20.365676 -7.763004 2.800300 47.491214 -0.618852 6.541908 -4.302158 0.000000 -0.000000 0.000000 1.768536 -6.382848 13.158018 2.370406 2.382988 14.177649 -1.960600 -4.239920 -18.455417 0.000000 -0.000000 0.000000 2.187843 6.342429 16.957236 0.835515 -1.019607 -1.270171 -0.371231 0.850832 2.776563 -0.936309 3.055552 1.262462 -0.852927 0.310941 13.296055 -28.751668 1.705601 2.416200 -55.036338 -5.721180 8.022218 9.468157 -28.771572 5.443511 -3.111397 -3.699864 -7.333663 27.440333 3.811611 4.567637 56.389533 4.260634 12.910185 -10.546446 20.090977 -2.293314 5.260987 3.516076 -6.698300 
-0.576293 0.249175 1.163987 176.267892 0.134222 77.785226 2.807798 -3.237884 -19.996633 -6.331457 3.082979 39.374927 -2.510143 6.414440 1.206617 0.000000 -0.000000 0.000000 1.439724 -6.351595 14.320645 2.048904 2.912810 14.008837 -2.320230 -4.163889 -19.194281 0.000000 -0.000000 0.000000 2.478099 6.424728 16.588913 0.559023 -0.987451 -0.765549 -0.686177 0.989021 2.638902 -1.199380 3.461304 2.064572 -0.915192 0.555400 13.346300 -28.992817 2.194152 2.248526 -55.379760 -4.971188 8.088749 9.387802 -26.468181 5.039577 -3.322285 -3.539537 -7.060707 27.309314 3.314257 4.812135 56.230774 4.386385 13.246487 -10.228429 21.116545 -2.610679 4.941166 3.748101 -7.091534 
-0.575920 0.261502 1.161155 175.636988 0.060972 77.983132 2.685289 -2.981674 -18.972595 -5.121094 3.238533 31.239399 -4.259589 6.801960 6.515606 0.000000 -0.000000 0.000000 1.204827 -6.018220 14.813699 2.353991 3.302563 14.444008 -2.642050 -4.222098 -20.133211 0.000000 -0.000000 0.000000 2.632384 6.428225 15.953818 0.499855 -0.904042 -0.230748 -0.778138 0.923044 2.403450 -1.358859 4.012114 2.686452 -1.215677 0.540804 13.338368 -29.382062 2.495782 2.281334 -55.712167 -4.348638 8.316157 9.751664 -24.432190 4.658467 -3.621484 -3.238902 -6.911311 27.356417 2.874697 5.016724 55.948807 4.557289 13.520264 -10.267207 21.818370 -2.947059 4.800388 4.001401 -7.298452 
-0.575161 0.275631 1.156602 174.908969 0.332248 78.288451 2.768595 -2.212440 -17.590487 -4.187923 2.725220 23.214992 -5.957459 7.048817 10.631961 0.000000 -0.000000 0.000000 1.561328 -5.689017 14.900015 2.322676 3.367575 15.628950 -2.914888 -4.393567 -21.434732 0.000000 -0.000000 0.000000 2.707543 6.225152 15.047426 0.653991 -0.662557 0.337239 -0.629275 0.903185 2.173382 -1.464003 4.647177 3.484447 -1.440236 0.646576 13.120825 -29.735847 2.799831 2.409331 -56.309878 -3.773016 8.471624 9.853541 -22.474943 4.203289 -4.023760 -2.903455 -6.666979 27.341492 2.661681 5.235730 55.620764 4.567107 13.615917 -10.573781 22.398575 -3.366878 4.773483 4.212587 -7.652141 
-0.574993 0.291486 1.150814 174.648871 0.524531 78.359825 2.366746 -1.385548 -16.069638 -3.185645 1.390840 16.409552 -6.401520 6.914616 12.611523 0.000000 -0.000000 0.000000 1.748844 -5.886664 15.129623 1.990182 3.445867 17.295915 -3.023098 -4.409640 -23.173683 0.000000 -0.000000 0.000000 2.731730 5.854362 14.587632 0.718704 -0.799954 0.511266 -0.592127 0.758433 2.017654 -1.211702 5.281050 4.101967 -1.868801 0.918214 13.475406 -29.553054 3.466278 2.338817 -57.269571 -3.154069 8.487930 9.912173 -20.727555 4.372263 -4.018867 -2.700046 -6.320748 27.272578 2.356232 5.092523 55.408651 4.804725 13.685843 -10.365602 22.064741 -3.576424 4.710255 4.512469 -7.554474 
-0.575054 0.307817 1.143770 174.482800 0.692728 78.556063 2.135693 -1.065780 -14.881312 -2.682665 0.202342 11.231121 -5.965347 6.834816 13.042126 0.000000 -0.000000 0.000000 2.040313 -5.474288 14.908725 2.009121 3.291355 19.533759 -2.942505 -5.426128 -25.017583 0.000000 -0.000000 0.000000 2.441251 5.352847 13.941659 0.971941 -0.901813 0.637130 -0.499994 0.628437 2.009110 -0.899555 5.869262 4.708999 -2.375873 0.984520 13.702822 -29.741612 3.978642 2.569495 -57.626112 -2.549558 8.519543 10.009989 -19.989114 4.521241 -4.547198 -2.310674 -6.660699 27.281048 2.035816 4.974407 55.320664 4.961103 13.696909 -10.738192 21.894733 -3.826035 5.036997 4.115174 -7.789257 
-0.575555 0.325311 1.135171 174.434783 0.740882 78.801384 1.885425 -0.636498 -14.243434 -2.300335 0.224857 8.166443 -6.393472 6.595603 13.993870 0.000000 -0.000000 0.000000 2.345275 -5.075765 14.586300 1.809110 3.188979 22.168033 -3.058557 -5.982475 -27.074334 0.000000 -0.000000 0.000000 2.148849 5.053674 13.310970 1.144380 -1.083776 0.586814 -0.538113 0.461424 2.077673 -0.523191 6.254588 5.107860 -2.676155 1.083730 13.925594 -29.554307 4.517924 2.786373 -58.049624 -2.131128 8.547345 9.874448 -19.563229 4.807180 -5.056442 -2.243879 -6.392746 27.391943 1.696875 4.802769 55.374553 5.051604 13.510624 -11.102314 21.634764 -4.412658 5.122719 4.080803 -7.966530 
-0.576571 0.345510 1.124891 174.452765 0.659413 78.432834 1.485128 -0.343714 -12.896806 -2.225750 0.177209 6.342751 -6.434019 6.796270 15.224045 0.000000 -0.000000 0.000000 2.238297 -4.988222 15.133713 1.643570 3.170375 24.845129 -3.012251 -6.510764 -29.087148 0.000000 -0.000000 0.000000 1.606311 4.840598 13.030895 1.340719 -1.149399 1.063896 -0.391991 0.292430 2.243945 -0.233478 6.707020 5.135468 -2.940052 1.100491 14.013925 -29.404272 4.821349 2.894919 -58.315381 -1.840143 8.621773 9.738867 -19.808415 5.387498 -5.560318 -2.355715 -6.292279 27.331377 1.428083 4.510839 55.440076 5.140496 13.349658 -11.234968 21.557394 -5.038331 5.185856 4.208517 -8.327045 
-0.578646 0.366358 1.113128 174.316144 0.752193 78.404526 1.369261 -0.065354 -12.223128 -2.313696 -0.125227 6.142023 -6.628157 7.092596 16.645091 0.000000 -0.000000 0.000000 1.998914 -5.182834 14.901077 1.571133 3.343993 28.754686 -3.033412 -6.659173 -31.021705 0.000000 -0.000000 0.000000 1.672020 4.691323 12.588304 1.440985 -1.208292 1.223398 -0.570867 0.251938 2.347503 0.086547 6.722187 5.537136 -3.179468 1.115177 13.980953 -29.329169 5.145094 2.988520 -58.169425 -1.458090 8.569559 9.400445 -20.654308 5.871828 -5.519565 -2.189653 -6.416585 27.419791 1.249577 4.554494 55.108868 4.841883 13.120614 -11.259469 21.923994 -5.136204 5.321815 3.810851 -8.463473 
